<?xml version="1.0" encoding="UTF-8"?> <svg xmlns="http://www.w3.org/2000/svg" viewBox="0 0 425 425"><defs><style>.cls-1{fill:none;}</style></defs><g id="Layer_2" data-name="Layer 2"><g id="Capa_1" data-name="Capa 1"><path d="M414,276.62l-78.78-152.2a41.17,41.17,0,0,0-36.87-22.76h0a41.19,41.19,0,0,0-36.87,22.76L206,231.55a55.23,55.23,0,0,0-28-24.33,53,53,0,0,0-6.7-90,107.63,107.63,0,0,0-50.26-12.34H38.12A30.79,30.79,0,0,0,7.28,135.67V290a30.8,30.8,0,0,0,30.84,30.81H127.8a123.34,123.34,0,0,0,48.69-10l5.7-2.75c.32-.15.62-.32.93-.48a30.8,30.8,0,0,0,54.46-3.15,16.39,16.39,0,0,1,14.29-9.94h92.94a16.4,16.4,0,0,1,14.3,9.94A30.82,30.82,0,0,0,418,291.77a30.17,30.17,0,0,0-4-15.15"></path><rect class="cls-1" width="425" height="425"></rect></g></g></svg> 